# xmcd
#
# Track frame offsets:
#	150
#	16325
#	32712
#	46475
#	60750
#	70287
#	86750
#	101900
#	114612
#	129737
#	145500
#	163012
#	175662
#	193467
#	213740
#	231237
#	246300
#	263562
#	283862
#	295960
#	310262
#	323700
#
# Disc length: 4570 seconds
# Revision: 0
# Processed by: cddbd v1.5.2PL0 Copyright (c) Steve Scherf et al.
# Submitted via: dBpowerAMP V12.0
#
DISCID=4f11d816
DTITLE=Reg Poole - From The Cradle to the Saddle
DYEAR=1900
DGENRE=Australian Country
TTITLE0=The Warrumbungle Mare
TTITLE1=From the Cradle to the Saddle
TTITLE2=Sheep-O
TTITLE3=Joe Timberry
TTITLE4=A Blaze Upon His Face
TTITLE5=Lassetter Rides Again
TTITLE6=The Ballad of Big Pedro
TTITLE7=Eighteen Down Beneath Me
TTITLE8=Paper Tombstones
TTITLE9=Kanyaka
TTITLE10=It's a Big Country
TTITLE11=Women of the West
TTITLE12=Mothers, Daughters, Wives
TTITLE13=The Little Irish Mother
TTITLE14=When the First Rains Fall
TTITLE15=Song of Granny
TTITLE16=The Drover's Boy
TTITLE17=Granny Riley
TTITLE18=Return
TTITLE19=Old Aunt Lisa
TTITLE20=Greaniums
TTITLE21=Woman of the West
EXTD=
EXTT0=
EXTT1=
EXTT2=
EXTT3=
EXTT4=
EXTT5=
EXTT6=
EXTT7=
EXTT8=
EXTT9=
EXTT10=
EXTT11=
EXTT12=
EXTT13=
EXTT14=
EXTT15=
EXTT16=
EXTT17=
EXTT18=
EXTT19=
EXTT20=
EXTT21=
PLAYORDER=
